<svg xmlns="http://www.w3.org/2000/svg" width="512" height="512" viewBox="0 0 512 512">
  <defs>
    <linearGradient id="bg" x1="0" y1="0" x2="1" y2="1">
      <stop offset="0" stop-color="#1f4d45"/>
      <stop offset=".55" stop-color="#1a4039"/>
      <stop offset="1" stop-color="#163832"/>
    </linearGradient>
    <radialGradient id="glow" cx=".28" cy=".18" r=".75">
      <stop offset="0" stop-color="#dce8e5" stop-opacity=".6"/>
      <stop offset="1" stop-color="#dce8e5" stop-opacity="0"/>
    </radialGradient>
    <radialGradient id="warm" cx=".9" cy="1" r=".55">
      <stop offset="0" stop-color="#f2f0eb" stop-opacity=".25"/>
      <stop offset="1" stop-color="#f2f0eb" stop-opacity="0"/>
    </radialGradient>
    <linearGradient id="body" x1="0" y1="0" x2="0" y2="1">
      <stop offset="0" stop-color="#ffffff"/>
      <stop offset="1" stop-color="#e6e2d7"/>
    </linearGradient>
    <linearGradient id="head" x1="0" y1="0" x2="0" y2="1">
      <stop offset="0" stop-color="#ffffff"/>
      <stop offset="1" stop-color="#f2f0eb"/>
    </linearGradient>
    <linearGradient id="feel" gradientUnits="userSpaceOnUse" x1="190" y1="0" x2="322" y2="0">
      <stop offset="0" stop-color="#3a7266"/>
      <stop offset=".5" stop-color="#1f4d45"/>
      <stop offset="1" stop-color="#163832"/>
    </linearGradient>
    <linearGradient id="rim" x1="0" y1="0" x2="0" y2="1">
      <stop offset="0" stop-color="#fff" stop-opacity=".45"/>
      <stop offset=".4" stop-color="#fff" stop-opacity="0"/>
    </linearGradient>
    <mask id="cut">
      <rect width="512" height="512" fill="#fff"/>
      <circle cx="256" cy="176" r="102" fill="#000"/>
    </mask>
    <filter id="soft" x="-50%" y="-50%" width="200%" height="200%"><feGaussianBlur stdDeviation="7"/></filter>
  </defs>
  <rect width="512" height="512" rx="112" fill="url(#bg)"/>
  <rect width="512" height="512" rx="112" fill="url(#glow)"/>
  <rect width="512" height="512" rx="112" fill="url(#warm)"/>
  <rect x="1.5" y="1.5" width="509" height="509" rx="110.5" fill="none" stroke="url(#rim)" stroke-width="3"/>
  <path mask="url(#cut)" d="M120 412C120 325.6 180.8 264 256 264C331.2 264 392 325.6 392 412C392 427.2 379.2 440 364 440H148C132.8 440 120 427.2 120 412Z" fill="url(#body)"/>
  <circle cx="256" cy="176" r="88" fill="url(#head)"/>
  <g stroke="url(#feel)" stroke-width="10" stroke-linecap="round" fill="url(#feel)">
    <g filter="url(#soft)" opacity=".55">
      <circle cx="256" cy="176" r="24" stroke="none"/>
      <circle cx="198" cy="142" r="14" stroke="none"/>
      <circle cx="316" cy="144" r="14" stroke="none"/>
    </g>
    <line x1="256" y1="176" x2="198" y2="142"/>
    <line x1="256" y1="176" x2="316" y2="144"/>
    <line x1="256" y1="176" x2="226" y2="222"/>
    <line x1="256" y1="176" x2="302" y2="217"/>
    <circle cx="198" cy="142" r="14" stroke="none"/>
    <circle cx="316" cy="144" r="14" stroke="none"/>
    <circle cx="226" cy="222" r="11" stroke="none"/>
    <circle cx="302" cy="217" r="11" stroke="none"/>
    <circle cx="256" cy="176" r="24" stroke="none"/>
  </g>
  <circle cx="256" cy="176" r="9" fill="#fff"/>
</svg>
